<svg class="diagram-root" style="background: #f5f6f6" xmlns="http://www.w3.org/2000/svg" xmlns:xlink="http://www.w3.org/1999/xlink"><style>.diagram-root { font-family: "Helvetica Neue", sans-serif; font-size: 12px; } .t { overflow: visible; } .t-bg { y: 40; fill: #fff;   } .th { fill: #005aa0;   } .tht { fill: #fff; font-size: 14px;  } .tf { fill: #323c46; overflow: visible; } .tf.pk { fill: #005aa0; font-weight: bold; } .tf.fk { font-weight: bold; } .ty { fill: #adb1b5; font-weight: normal; text-anchor: end; } .r { fill: transparent; stroke: #c3c3c3; stroke-width: 1; } .l { stroke: 1; } .i { fill: #c2c7ce; stroke: #c2c7ce; } .i.ix { fill: #afb3b6; stroke: #000; } .fa { fill: transparent; overflow: visible; } .fa .bg.hover { fill: #f7f7f7; } .c { cy: 12; r: 4; stroke: #d2d2dc; fill: #d2d2dc; } .hr { fill: transparent; stroke: #323c46; stroke-opacity: 0.035; stroke-width: 13; } .dc { stroke: #fa5a3c; fill: #fa5a3c; } .x { stroke: white; stroke-width: 1; } .hl .th { fill: #1b9bff; } .hl .tht {  } .fhl .bg { fill: #e7f4ff; } .fhls .bg {  } .r.hl { stroke: #1b9bff; } .dim { opacity: 0.25; }</style><g class="drawing-wrapper" transform="translate(426.3333333333333, 227.66666666666669) scale(1,1)"><g class="rs"><path d="M -229.84 528.3299999999999 m -1, 0 a 1,1 0 1,0 2,0 a 1,1 0 1,0 -2,0 M -229.84 528.3299999999999 m -0.5, 0 a 0.5,0.5 0 1,0 1,0 a 0.5,0.5 0 1,0 -1,0  M-229.84 528.3299999999999 L-229.84 528.3299999999999 -217.84 528.3299999999999 M -229.84 534.3299999999999 m -1, 0 a 1,1 0 1,0 2,0 a 1,1 0 1,0 -2,0 M -229.84 534.3299999999999 m -0.5, 0 a 0.5,0.5 0 1,0 1,0 a 0.5,0.5 0 1,0 -1,0  M-229.84 534.3299999999999 L-229.84 534.3299999999999 -222.84 528.3299999999999 -229.84 522.3299999999999 M -229.84 522.3299999999999 m -1, 0 a 1,1 0 1,0 2,0 a 1,1 0 1,0 -2,0 M -229.84 522.3299999999999 m -0.5, 0 a 0.5,0.5 0 1,0 1,0 a 0.5,0.5 0 1,0 -1,0  M-217.84 528.3299999999999 Q -134.21 528.3299999999999, -50.59 193.83 T 116.66999999999999 -140.67 M 128.67 -140.67 m -1, 0 a 1,1 0 1,0 2,0 a 1,1 0 1,0 -2,0 M 128.67 -140.67 m -0.5, 0 a 0.5,0.5 0 1,0 1,0 a 0.5,0.5 0 1,0 -1,0  M128.67 -140.67 L128.67 -140.67 116.66999999999999 -140.67 M122.66999999999999 -134.67 L122.66999999999999 -134.67 122.66999999999999 -146.67" id="h1139284389" class="r"></path><path d="M -229.84 553.3299999999999 m -1, 0 a 1,1 0 1,0 2,0 a 1,1 0 1,0 -2,0 M -229.84 553.3299999999999 m -0.5, 0 a 0.5,0.5 0 1,0 1,0 a 0.5,0.5 0 1,0 -1,0  M-229.84 553.3299999999999 L-229.84 553.3299999999999 -217.84 553.3299999999999 M -229.84 559.3299999999999 m -1, 0 a 1,1 0 1,0 2,0 a 1,1 0 1,0 -2,0 M -229.84 559.3299999999999 m -0.5, 0 a 0.5,0.5 0 1,0 1,0 a 0.5,0.5 0 1,0 -1,0  M-229.84 559.3299999999999 L-229.84 559.3299999999999 -222.84 553.3299999999999 -229.84 547.3299999999999 M -229.84 547.3299999999999 m -1, 0 a 1,1 0 1,0 2,0 a 1,1 0 1,0 -2,0 M -229.84 547.3299999999999 m -0.5, 0 a 0.5,0.5 0 1,0 1,0 a 0.5,0.5 0 1,0 -1,0  M-217.84 553.3299999999999 C -167.84 553.3299999999999, -163.442 -50.67, -225.17 -50.67 M -237.17 -50.67 m -1, 0 a 1,1 0 1,0 2,0 a 1,1 0 1,0 -2,0 M -237.17 -50.67 m -0.5, 0 a 0.5,0.5 0 1,0 1,0 a 0.5,0.5 0 1,0 -1,0  M-237.17 -50.67 L-237.17 -50.67 -225.17 -50.67 M-231.17 -44.67 L-231.17 -44.67 -231.17 -56.67" id="h1607168654" class="r"></path><path d="M 312.67 660 m -1, 0 a 1,1 0 1,0 2,0 a 1,1 0 1,0 -2,0 M 312.67 660 m -0.5, 0 a 0.5,0.5 0 1,0 1,0 a 0.5,0.5 0 1,0 -1,0  M312.67 660 L312.67 660 300.67 660 M 312.67 666 m -1, 0 a 1,1 0 1,0 2,0 a 1,1 0 1,0 -2,0 M 312.67 666 m -0.5, 0 a 0.5,0.5 0 1,0 1,0 a 0.5,0.5 0 1,0 -1,0  M312.67 666 L312.67 666 305.67 660 312.67 654 M 312.67 654 m -1, 0 a 1,1 0 1,0 2,0 a 1,1 0 1,0 -2,0 M 312.67 654 m -0.5, 0 a 0.5,0.5 0 1,0 1,0 a 0.5,0.5 0 1,0 -1,0  M300.67 660 Q 169.21 660, 37.75 304.67 T -225.17 -50.67 M -237.17 -50.67 m -1, 0 a 1,1 0 1,0 2,0 a 1,1 0 1,0 -2,0 M -237.17 -50.67 m -0.5, 0 a 0.5,0.5 0 1,0 1,0 a 0.5,0.5 0 1,0 -1,0  M-237.17 -50.67 L-237.17 -50.67 -225.17 -50.67 M-231.17 -44.67 L-231.17 -44.67 -231.17 -56.67" id="h1397587031" class="r"></path><path d="M 459.83 685 m -1, 0 a 1,1 0 1,0 2,0 a 1,1 0 1,0 -2,0 M 459.83 685 m -0.5, 0 a 0.5,0.5 0 1,0 1,0 a 0.5,0.5 0 1,0 -1,0  M459.83 685 L459.83 685 471.83 685 M 459.83 691 m -1, 0 a 1,1 0 1,0 2,0 a 1,1 0 1,0 -2,0 M 459.83 691 m -0.5, 0 a 0.5,0.5 0 1,0 1,0 a 0.5,0.5 0 1,0 -1,0  M459.83 691 L459.83 691 466.83 685 459.83 679 M 459.83 679 m -1, 0 a 1,1 0 1,0 2,0 a 1,1 0 1,0 -2,0 M 459.83 679 m -0.5, 0 a 0.5,0.5 0 1,0 1,0 a 0.5,0.5 0 1,0 -1,0  M471.83 685 C 521.8299999999999 685, 619.432 -140.67, 309.16 -140.67 M 297.16 -140.67 m -1, 0 a 1,1 0 1,0 2,0 a 1,1 0 1,0 -2,0 M 297.16 -140.67 m -0.5, 0 a 0.5,0.5 0 1,0 1,0 a 0.5,0.5 0 1,0 -1,0  M297.16 -140.67 L297.16 -140.67 309.16 -140.67 M303.16 -134.67 L303.16 -134.67 303.16 -146.67" id="h2286254435" class="r"></path><path d="M 849.33 274 m -1, 0 a 1,1 0 1,0 2,0 a 1,1 0 1,0 -2,0 M 849.33 274 m -0.5, 0 a 0.5,0.5 0 1,0 1,0 a 0.5,0.5 0 1,0 -1,0  M849.33 274 L849.33 274 837.33 274 M 849.33 280 m -1, 0 a 1,1 0 1,0 2,0 a 1,1 0 1,0 -2,0 M 849.33 280 m -0.5, 0 a 0.5,0.5 0 1,0 1,0 a 0.5,0.5 0 1,0 -1,0  M849.33 280 L849.33 280 842.33 274 849.33 268 M 849.33 268 m -1, 0 a 1,1 0 1,0 2,0 a 1,1 0 1,0 -2,0 M 849.33 268 m -0.5, 0 a 0.5,0.5 0 1,0 1,0 a 0.5,0.5 0 1,0 -1,0  M837.33 274 Q 705.29 274, 573.25 66.67 T 309.16 -140.67 M 297.16 -140.67 m -1, 0 a 1,1 0 1,0 2,0 a 1,1 0 1,0 -2,0 M 297.16 -140.67 m -0.5, 0 a 0.5,0.5 0 1,0 1,0 a 0.5,0.5 0 1,0 -1,0  M297.16 -140.67 L297.16 -140.67 309.16 -140.67 M303.16 -134.67 L303.16 -134.67 303.16 -146.67" id="h3177548053" class="r"></path><path d="M 1493.33 -93.33000000000001 m -1, 0 a 1,1 0 1,0 2,0 a 1,1 0 1,0 -2,0 M 1493.33 -93.33000000000001 m -0.5, 0 a 0.5,0.5 0 1,0 1,0 a 0.5,0.5 0 1,0 -1,0  M1493.33 -93.33000000000001 L1493.33 -93.33000000000001 1481.33 -93.33000000000001 M 1493.33 -87.33000000000001 m -1, 0 a 1,1 0 1,0 2,0 a 1,1 0 1,0 -2,0 M 1493.33 -87.33000000000001 m -0.5, 0 a 0.5,0.5 0 1,0 1,0 a 0.5,0.5 0 1,0 -1,0  M1493.33 -87.33000000000001 L1493.33 -87.33000000000001 1486.33 -93.33000000000001 1493.33 -99.33000000000001 M 1493.33 -99.33000000000001 m -1, 0 a 1,1 0 1,0 2,0 a 1,1 0 1,0 -2,0 M 1493.33 -99.33000000000001 m -0.5, 0 a 0.5,0.5 0 1,0 1,0 a 0.5,0.5 0 1,0 -1,0  M1481.33 -93.33000000000001 Q 1188.29 -93.33000000000001, 895.25 -117 T 309.16 -140.67 M 297.16 -140.67 m -1, 0 a 1,1 0 1,0 2,0 a 1,1 0 1,0 -2,0 M 297.16 -140.67 m -0.5, 0 a 0.5,0.5 0 1,0 1,0 a 0.5,0.5 0 1,0 -1,0  M297.16 -140.67 L297.16 -140.67 309.16 -140.67 M303.16 -134.67 L303.16 -134.67 303.16 -146.67" id="h3000826536" class="r"></path></g><g class="hrs"></g><g class="ts"><svg width="167.16" height="100" x="-404.33" y="-107.67" id="h475896179" class="t"><rect height="40" width="167.16" class="th"></rect><text x="13" y="25" class="tht">departments</text><rect height="60" width="167.16" class="t-bg"></rect><text x="13" y="61" class="tf pk">dept_no<tspan x="154.16" class="ty">VARCHAR</tspan></text><path d="M7,14A2,2 0 0,1 5,12A2,2 0 0,1 7,10A2,2 0 0,1 9,12A2,2 0 0,1 7,14M12.65,10C11.83,7.67 9.61,6 7, 6A6, 6 0 0, 0 1, 12A6, 6 0 0, 0 7, 18C9.61, 18 11.83, 16.33 12.65, 14H17V18H21V14H23V10H12.65Z" class="i pk" transform="translate(76.37484375, 48) scale(0.65)"></path><text x="13" y="86" class="tf">dept_name<tspan x="154.16" class="ty">VARCHAR</tspan></text></svg><svg width="147.16" height="100" x="-377" y="471.33" id="h1090417462" class="t"><rect height="40" width="147.16" class="th"></rect><text x="13" y="25" class="tht">dept_emp</text><rect height="60" width="147.16" class="t-bg"></rect><text x="13" y="61" class="tf fk">emp_no<tspan x="134.16" class="ty">INT</tspan></text><text x="13" y="86" class="tf fk">dept_no<tspan x="134.16" class="ty">VARCHAR</tspan></text></svg><svg width="147.16" height="100" x="312.67" y="603" id="h1676682957" class="t"><rect height="40" width="147.16" class="th"></rect><text x="13" y="25" class="tht">dept_manager</text><rect height="60" width="147.16" class="t-bg"></rect><text x="13" y="61" class="tf fk">dept_no<tspan x="134.16" class="ty">VARCHAR</tspan></text><text x="13" y="86" class="tf fk">emp_no<tspan x="134.16" class="ty">INT</tspan></text></svg><svg width="168.49" height="225" x="128.67" y="-197.67" id="h1639608377" class="t"><rect height="40" width="168.49" class="th"></rect><text x="13" y="25" class="tht">employees</text><rect height="185" width="168.49" class="t-bg"></rect><text x="13" y="61" class="tf pk">emp_no<tspan x="155.49" class="ty">INT</tspan></text><path d="M7,14A2,2 0 0,1 5,12A2,2 0 0,1 7,10A2,2 0 0,1 9,12A2,2 0 0,1 7,14M12.65,10C11.83,7.67 9.61,6 7, 6A6, 6 0 0, 0 1, 12A6, 6 0 0, 0 7, 18C9.61, 18 11.83, 16.33 12.65, 14H17V18H21V14H23V10H12.65Z" class="i pk" transform="translate(116.15992187500001, 48) scale(0.65)"></path><text x="13" y="86" class="tf">emp_title_id<tspan x="155.49" class="ty">VARCHAR</tspan></text><text x="13" y="111" class="tf">birth_date<tspan x="155.49" class="ty">DATE</tspan></text><text x="13" y="136" class="tf">first_name<tspan x="155.49" class="ty">VARCHAR</tspan></text><text x="13" y="161" class="tf">last_name<tspan x="155.49" class="ty">VARCHAR</tspan></text><text x="13" y="186" class="tf">sex<tspan x="155.49" class="ty">VARCHAR</tspan></text><text x="13" y="211" class="tf">hire_date<tspan x="155.49" class="ty">DATE</tspan></text></svg><svg width="108.7" height="100" x="849.33" y="217" id="h2472833127" class="t"><rect height="40" width="108.7" class="th"></rect><text x="13" y="25" class="tht">salaries</text><rect height="60" width="108.7" class="t-bg"></rect><text x="13" y="61" class="tf fk">emp_no<tspan x="95.7" class="ty">INT</tspan></text><text x="13" y="86" class="tf">salary<tspan x="95.7" class="ty">INT</tspan></text></svg><svg width="122.46" height="100" x="1493.33" y="-150.33" id="h311790747" class="t"><rect height="40" width="122.46" class="th"></rect><text x="13" y="25" class="tht">titles</text><rect height="60" width="122.46" class="t-bg"></rect><text x="13" y="61" class="tf fk">emp_no<tspan x="109.46" class="ty">INT</tspan></text><text x="13" y="86" class="tf">title<tspan x="109.46" class="ty">VARCHAR</tspan></text></svg></g></g><text class="qdbd-link" x="10" y="20">www.quickdatabasediagrams.com</text></svg>